<svg viewBox="0 0 136 48" fill="none" xmlns="http://www.w3.org/2000/svg">
<path d="M0.42 27.674V26.771H3.003V27.674C3.003 28.85 3.654 29.774 5.166 29.774C6.678 29.774 7.308 28.913 7.308 27.569V16.649H9.996V27.716C9.996 30.425 8.106 32.273 5.187 32.273C2.037 32.273 0.42 30.32 0.42 27.674ZM12.3009 26.792C12.3009 23.558 14.6319 21.332 17.8449 21.332C21.0579 21.332 23.3889 23.558 23.3889 26.792C23.3889 30.026 21.0579 32.252 17.8449 32.252C14.6319 32.252 12.3009 30.026 12.3009 26.792ZM14.8629 26.792C14.8629 28.682 16.0809 29.963 17.8449 29.963C19.6089 29.963 20.8269 28.682 20.8269 26.792C20.8269 24.902 19.6089 23.621 17.8449 23.621C16.0809 23.621 14.8629 24.902 14.8629 26.792ZM27.7927 32H25.4197V16.376H27.9817V23.138C28.6537 21.983 30.0397 21.29 31.6147 21.29C34.5757 21.29 36.3817 23.6 36.3817 26.876C36.3817 30.068 34.4287 32.273 31.4467 32.273C29.8927 32.273 28.5697 31.58 27.9607 30.383L27.7927 32ZM28.0027 26.771C28.0027 28.64 29.1577 29.921 30.9217 29.921C32.7277 29.921 33.7987 28.619 33.7987 26.771C33.7987 24.923 32.7277 23.6 30.9217 23.6C29.1577 23.6 28.0027 24.902 28.0027 26.771ZM37.129 36.809V34.667H38.662C39.67 34.667 40.3 34.436 40.741 33.218L41.035 32.441L36.856 21.626H39.565L42.232 29.186L45.046 21.626H47.692L42.61 34.31C41.833 36.242 40.741 37.04 39.04 37.04C38.326 37.04 37.696 36.956 37.129 36.809Z" fill="#F4B448"/>
<path d="M50.8692 32.252C49.9452 32.252 49.1682 31.496 49.1682 30.593C49.1682 29.669 49.9452 28.913 50.8692 28.913C51.7932 28.913 52.5702 29.669 52.5702 30.593C52.5702 31.496 51.7932 32.252 50.8692 32.252ZM58.1405 32.273C55.9355 32.273 54.5915 30.992 54.5915 29.039C54.5915 27.128 55.9775 25.931 58.4345 25.742L61.5425 25.511V25.28C61.5425 23.873 60.7025 23.306 59.4005 23.306C57.8885 23.306 57.0485 23.936 57.0485 25.028H54.8645C54.8645 22.781 56.7125 21.311 59.5265 21.311C62.3195 21.311 64.0415 22.823 64.0415 25.7V32H61.7945L61.6055 30.467C61.1645 31.538 59.7575 32.273 58.1405 32.273ZM58.9805 30.341C60.5555 30.341 61.5635 29.396 61.5635 27.8V27.254L59.4005 27.422C57.8045 27.569 57.1955 28.094 57.1955 28.934C57.1955 29.879 57.8255 30.341 58.9805 30.341ZM67.8394 19.547C66.9574 19.547 66.2644 18.854 66.2644 17.993C66.2644 17.132 66.9574 16.46 67.8394 16.46C68.6794 16.46 69.3724 17.132 69.3724 17.993C69.3724 18.854 68.6794 19.547 67.8394 19.547ZM66.5584 32V21.626H69.1204V32H66.5584Z" fill="black"/>
<rect x="77" y="11" width="59" height="26" rx="9" fill="#EDEDED"/>
<path d="M95.288 29H93.819V19.328H95.405V23.514C95.821 22.799 96.679 22.37 97.654 22.37C99.487 22.37 100.605 23.8 100.605 25.828C100.605 27.804 99.396 29.169 97.55 29.169C96.588 29.169 95.769 28.74 95.392 27.999L95.288 29ZM95.418 25.763C95.418 26.92 96.133 27.713 97.225 27.713C98.343 27.713 99.006 26.907 99.006 25.763C99.006 24.619 98.343 23.8 97.225 23.8C96.133 23.8 95.418 24.606 95.418 25.763ZM104.741 29.169C102.83 29.169 101.491 27.778 101.491 25.789C101.491 23.774 102.804 22.383 104.689 22.383C106.613 22.383 107.835 23.67 107.835 25.672V26.153L102.999 26.166C103.116 27.297 103.714 27.869 104.767 27.869C105.638 27.869 106.21 27.531 106.392 26.92H107.861C107.588 28.324 106.418 29.169 104.741 29.169ZM104.702 23.683C103.766 23.683 103.194 24.19 103.038 25.152H106.262C106.262 24.268 105.651 23.683 104.702 23.683ZM111.225 29H109.639V23.904H108.404V22.578H109.639V20.576H111.225V22.578H112.473V23.904H111.225V29ZM115.332 29.169C113.967 29.169 113.135 28.376 113.135 27.167C113.135 25.984 113.993 25.243 115.514 25.126L117.438 24.983V24.84C117.438 23.969 116.918 23.618 116.112 23.618C115.176 23.618 114.656 24.008 114.656 24.684H113.304C113.304 23.293 114.448 22.383 116.19 22.383C117.919 22.383 118.985 23.319 118.985 25.1V29H117.594L117.477 28.051C117.204 28.714 116.333 29.169 115.332 29.169ZM115.852 27.973C116.827 27.973 117.451 27.388 117.451 26.4V26.062L116.112 26.166C115.124 26.257 114.747 26.582 114.747 27.102C114.747 27.687 115.137 27.973 115.852 27.973Z" fill="#AAADAA"/>
</svg>
